# xmcd
#
# Track frame offsets: 
#        183
#        13475
#        28145
#        42633
#        56833
#        70585
#        85028
#        99540
#        113850
#        126455
#        140145
#        156235
#        171628
#        186815
#
# Disc length: 2643 seconds
#
# Revision: 3
# Processed by: cddbd v1.5.2PL0 Copyright (c) Steve Scherf et al.
# Submitted via: ExactAudioCopy v1.3
#
DISCID=d60a510e
DTITLE=Truck Stop - Alles klar
DYEAR=1984
DGENRE=Country
TTITLE0=Alles klar
TTITLE1=Ein Tag wie ein Freund
TTITLE2=Mein Stiefel kommt in' Himmel
TTITLE3=Jonny Galaxis
TTITLE4=Die Elbbrücke ist aus Eisen
TTITLE5=Laß mal gut sein
TTITLE6=Wir Zwei
TTITLE7=Happy Birthday
TTITLE8=Truck Stop Mama
TTITLE9=Cowboy-Boots und Rock 'n' Roll
TTITLE10=Nie mehr
TTITLE11=Ich heb' die Welt aus ihren Angeln
TTITLE12=Kopf hoch, Cowboy
TTITLE13=Urlaub, Urlaub
EXTD=
EXTT0=
EXTT1=
EXTT2=
EXTT3=
EXTT4=
EXTT5=
EXTT6=
EXTT7=
EXTT8=
EXTT9=
EXTT10=
EXTT11=
EXTT12=
EXTT13=
PLAYORDER=
